<mxfile host="app.diagrams.net" modified="2023-10-21T14:33:50.491Z" agent="Mozilla/5.0 (X11; Linux x86_64; rv:109.0) Gecko/20100101 Firefox/118.0" version="22.0.6" etag="Pjs9r0Pf1fBPkxCnXF1K" type="github">
  <diagram name="PÃ¡gina-1" id="UpSpDiCJO8Ryl1YOvKDu">
    <mxGraphModel>
      <root>
        <mxCell id="0" />
        <mxCell id="1" parent="0" />
      </root>
    </mxGraphModel>
  </diagram>
</mxfile>
